<svg xmlns="http://www.w3.org/2000/svg" xmlns:xlink="http://www.w3.org/1999/xlink" width="80" zoomAndPan="magnify" viewBox="0 0 60 60" height="80" preserveAspectRatio="xMidYMid meet" version="1.0"><defs><clipPath id="4843f4241d"><path d="M 3.046875 15 L 45 15 L 45 57 L 3.046875 57 Z M 3.046875 15 " clip-rule="nonzero"/></clipPath></defs><path fill="#252525" d="M 30.675781 25.214844 C 31.015625 24.503906 30.714844 23.65625 30.003906 23.316406 C 28.089844 22.398438 26.039062 21.933594 23.898438 21.933594 C 21.988281 21.933594 20.136719 22.308594 18.390625 23.046875 C 16.703125 23.761719 15.191406 24.78125 13.890625 26.078125 C 12.59375 27.378906 11.570312 28.894531 10.859375 30.578125 C 10.121094 32.324219 9.746094 34.179688 9.746094 36.089844 C 9.746094 38 10.121094 39.851562 10.859375 41.597656 C 11.570312 43.285156 12.59375 44.796875 13.890625 46.097656 C 15.191406 47.398438 16.703125 48.417969 18.390625 49.128906 C 20.136719 49.867188 21.988281 50.242188 23.898438 50.242188 C 25.808594 50.242188 27.664062 49.867188 29.410156 49.128906 C 31.097656 48.417969 32.609375 47.398438 33.910156 46.097656 C 35.207031 44.796875 36.230469 43.285156 36.941406 41.597656 C 37.679688 39.851562 38.054688 38 38.054688 36.089844 C 38.054688 33.984375 37.605469 31.957031 36.714844 30.066406 C 36.378906 29.355469 35.53125 29.050781 34.820312 29.386719 C 34.109375 29.722656 33.804688 30.570312 34.136719 31.28125 C 34.847656 32.789062 35.207031 34.40625 35.207031 36.089844 C 35.207031 39.109375 34.03125 41.949219 31.894531 44.085938 C 29.761719 46.222656 26.921875 47.398438 23.898438 47.398438 C 20.878906 47.398438 18.039062 46.222656 15.902344 44.085938 C 13.769531 41.949219 12.59375 39.109375 12.59375 36.089844 C 12.59375 33.066406 13.769531 30.226562 15.902344 28.09375 C 18.039062 25.957031 20.878906 24.78125 23.898438 24.78125 C 25.609375 24.78125 27.25 25.152344 28.777344 25.882812 C 29.484375 26.222656 30.335938 25.921875 30.675781 25.214844 Z M 30.675781 25.214844 " fill-opacity="1" fill-rule="nonzero"/><g clip-path="url(#4843f4241d)"><path fill="#252525" d="M 39.605469 24.558594 C 38.941406 24.980469 38.738281 25.855469 39.15625 26.523438 C 40.957031 29.382812 41.90625 32.691406 41.90625 36.089844 C 41.90625 38.519531 41.429688 40.878906 40.492188 43.097656 C 39.585938 45.242188 38.285156 47.167969 36.632812 48.820312 C 34.976562 50.472656 33.050781 51.773438 30.910156 52.679688 C 28.691406 53.617188 26.332031 54.09375 23.898438 54.09375 C 21.46875 54.09375 19.109375 53.617188 16.890625 52.679688 C 14.75 51.773438 12.824219 50.472656 11.167969 48.820312 C 9.515625 47.167969 8.214844 45.242188 7.308594 43.097656 C 6.371094 40.878906 5.894531 38.519531 5.894531 36.089844 C 5.894531 35.746094 5.90625 35.398438 5.925781 35.054688 C 6.324219 27.972656 10.875 21.769531 17.515625 19.25 C 19.550781 18.476562 21.699219 18.082031 23.898438 18.082031 C 27.277344 18.082031 30.570312 19.023438 33.417969 20.800781 C 33.652344 20.949219 33.914062 21.019531 34.171875 21.019531 C 34.648438 21.019531 35.109375 20.78125 35.378906 20.347656 C 35.796875 19.683594 35.59375 18.804688 34.925781 18.386719 C 31.625 16.328125 27.8125 15.238281 23.898438 15.238281 C 21.355469 15.238281 18.863281 15.691406 16.503906 16.585938 C 8.816406 19.503906 3.546875 26.691406 3.082031 34.894531 C 3.058594 35.289062 3.046875 35.691406 3.046875 36.089844 C 3.046875 38.902344 3.601562 41.632812 4.6875 44.207031 C 5.738281 46.6875 7.242188 48.917969 9.15625 50.832031 C 11.070312 52.746094 13.300781 54.25 15.785156 55.300781 C 18.355469 56.390625 21.085938 56.941406 23.898438 56.941406 C 26.714844 56.941406 29.445312 56.390625 32.015625 55.300781 C 34.5 54.25 36.730469 52.746094 38.644531 50.832031 C 40.558594 48.917969 42.0625 46.6875 43.113281 44.207031 C 44.199219 41.632812 44.753906 38.902344 44.753906 36.089844 C 44.753906 32.15625 43.652344 28.324219 41.566406 25.007812 C 41.148438 24.34375 40.269531 24.140625 39.605469 24.558594 Z M 39.605469 24.558594 " fill-opacity="1" fill-rule="nonzero"/></g><path fill="#252525" d="M 59.820312 11.292969 C 59.65625 10.785156 59.21875 10.410156 58.691406 10.328125 L 51.527344 9.195312 C 51.460938 9.035156 51.359375 8.886719 51.230469 8.757812 C 51.101562 8.625 50.949219 8.527344 50.789062 8.457031 L 49.660156 1.296875 C 49.574219 0.769531 49.203125 0.332031 48.691406 0.164062 C 48.183594 0 47.625 0.132812 47.246094 0.511719 L 38.160156 9.597656 C 37.839844 9.921875 37.691406 10.378906 37.761719 10.828125 L 39.042969 18.929688 L 23.449219 34.523438 C 22.894531 35.082031 22.894531 35.980469 23.449219 36.535156 C 23.726562 36.816406 24.089844 36.953125 24.457031 36.953125 C 24.820312 36.953125 25.183594 36.816406 25.460938 36.535156 L 41.054688 20.945312 L 49.160156 22.226562 C 49.234375 22.238281 49.308594 22.242188 49.382812 22.242188 C 49.753906 22.242188 50.117188 22.09375 50.386719 21.824219 L 59.472656 12.738281 C 59.851562 12.359375 59.988281 11.800781 59.820312 11.292969 Z M 47.285156 4.5 L 48.128906 9.84375 L 41.53125 16.441406 L 40.6875 11.097656 Z M 48.886719 19.300781 L 43.542969 18.457031 L 50.140625 11.859375 L 55.484375 12.703125 Z M 48.886719 19.300781 " fill-opacity="1" fill-rule="nonzero"/><path fill="#252525" d="M 23.898438 32.308594 C 24.074219 32.308594 24.25 32.320312 24.421875 32.34375 C 25.203125 32.453125 25.921875 31.910156 26.027344 31.128906 C 26.132812 30.351562 25.589844 29.632812 24.8125 29.527344 C 24.511719 29.484375 24.203125 29.464844 23.898438 29.464844 C 20.246094 29.464844 17.273438 32.4375 17.273438 36.089844 C 17.273438 39.742188 20.246094 42.714844 23.898438 42.714844 C 27.554688 42.714844 30.527344 39.742188 30.527344 36.089844 C 30.527344 35.789062 30.503906 35.488281 30.464844 35.195312 C 30.359375 34.417969 29.644531 33.871094 28.863281 33.976562 C 28.085938 34.082031 27.539062 34.796875 27.644531 35.578125 C 27.667969 35.746094 27.679688 35.917969 27.679688 36.089844 C 27.679688 38.171875 25.984375 39.867188 23.898438 39.867188 C 21.816406 39.867188 20.121094 38.171875 20.121094 36.089844 C 20.121094 34.003906 21.816406 32.308594 23.898438 32.308594 Z M 23.898438 32.308594 " fill-opacity="1" fill-rule="nonzero"/></svg>