<svg xmlns="http://www.w3.org/2000/svg" xmlns:xlink="http://www.w3.org/1999/xlink" width="80" zoomAndPan="magnify" viewBox="0 0 60 60" height="80" preserveAspectRatio="xMidYMid meet" version="1.0"><defs><clipPath id="6e07082239"><path d="M 43 4 L 56 4 L 56 15 L 43 15 Z M 43 4 " clip-rule="nonzero"/></clipPath><clipPath id="b9bb1b0e13"><path d="M 54.472656 2.597656 L 61.15625 54.667969 L 26.195312 59.15625 L 19.507812 7.085938 Z M 54.472656 2.597656 " clip-rule="nonzero"/></clipPath><clipPath id="8f417b7886"><path d="M 54.472656 2.597656 L 61.15625 54.667969 L 26.195312 59.15625 L 19.507812 7.085938 Z M 54.472656 2.597656 " clip-rule="nonzero"/></clipPath><clipPath id="fcb04bf90a"><path d="M 54.472656 2.597656 L 61.15625 54.667969 L 26.195312 59.15625 L 19.507812 7.085938 Z M 54.472656 2.597656 " clip-rule="nonzero"/></clipPath><clipPath id="11e02e6ec7"><path d="M 24 8 L 56 8 L 56 57 L 24 57 Z M 24 8 " clip-rule="nonzero"/></clipPath><clipPath id="b1541504ed"><path d="M 54.472656 2.597656 L 61.15625 54.667969 L 26.195312 59.15625 L 19.507812 7.085938 Z M 54.472656 2.597656 " clip-rule="nonzero"/></clipPath><clipPath id="e35a8119ae"><path d="M 54.472656 2.597656 L 61.15625 54.667969 L 26.195312 59.15625 L 19.507812 7.085938 Z M 54.472656 2.597656 " clip-rule="nonzero"/></clipPath><clipPath id="689f2b2469"><path d="M 54.472656 2.597656 L 61.15625 54.667969 L 26.195312 59.15625 L 19.507812 7.085938 Z M 54.472656 2.597656 " clip-rule="nonzero"/></clipPath></defs><g clip-path="url(#6e07082239)"><g clip-path="url(#b9bb1b0e13)"><g clip-path="url(#8f417b7886)"><g clip-path="url(#fcb04bf90a)"><path fill="#040606" d="M 43.648438 13.941406 C 43.605469 13.582031 43.785156 13.222656 44.128906 13.058594 L 52.3125 9.148438 L 44.023438 5.691406 C 43.589844 5.511719 43.382812 5.007812 43.5625 4.570312 C 43.742188 4.132812 44.238281 3.925781 44.671875 4.109375 L 54.730469 8.300781 C 55.042969 8.433594 55.257812 8.71875 55.257812 9.074219 C 55.265625 9.410156 55.078125 9.722656 54.773438 9.867188 L 44.859375 14.609375 C 44.433594 14.8125 43.925781 14.628906 43.726562 14.199219 C 43.6875 14.117188 43.660156 14.027344 43.648438 13.941406 " fill-opacity="1" fill-rule="nonzero"/></g></g></g></g><g clip-path="url(#11e02e6ec7)"><g clip-path="url(#b1541504ed)"><g clip-path="url(#e35a8119ae)"><g clip-path="url(#689f2b2469)"><path fill="#040606" d="M 24.5 35.097656 C 24.101562 31.996094 24.308594 28.808594 25.207031 25.683594 C 28.625 13.800781 41.148438 6.371094 54.347656 8.398438 C 54.8125 8.472656 55.132812 8.910156 55.058594 9.375 C 54.992188 9.84375 54.554688 10.164062 54.089844 10.09375 C 41.738281 8.195312 30.023438 15.105469 26.84375 26.164062 C 23.464844 37.910156 30.625 50.664062 43.140625 55.207031 C 43.582031 55.371094 43.808594 55.859375 43.65625 56.304688 C 43.496094 56.75 43.007812 56.980469 42.566406 56.820312 C 32.515625 53.171875 25.710938 44.527344 24.5 35.097656 " fill-opacity="1" fill-rule="nonzero"/></g></g></g></g></svg>