<svg xmlns="http://www.w3.org/2000/svg" width="1em" height="1em" viewBox="0 0 24 24"><path fill="black" d="M10.507 14.142a1.35 1.35 0 1 0 1.35 1.35a1.35 1.35 0 0 0-1.35-1.35"/><path fill="black" d="M14 2.01H6a1.997 1.997 0 0 0-1.99 2l-.01 16a1.997 1.997 0 0 0 1.99 2H18a2.006 2.006 0 0 0 2-2v-12Zm.863 14.958l-.9 1.557a.236.236 0 0 1-.279.099l-1.125-.45a3.3 3.3 0 0 1-.756.44l-.17 1.189a.23.23 0 0 1-.226.189h-1.8a.224.224 0 0 1-.225-.19l-.17-1.187a3 3 0 0 1-.766-.441l-1.116.45a.23.23 0 0 1-.279-.1l-.9-1.556a.234.234 0 0 1 .054-.288l.954-.747a3.6 3.6 0 0 1 0-.882l-.954-.747a.223.223 0 0 1-.054-.288l.9-1.557a.236.236 0 0 1 .28-.1l1.115.45a3.6 3.6 0 0 1 .765-.44l.171-1.188a.23.23 0 0 1 .225-.19h1.8a.215.215 0 0 1 .216.19l.171 1.188a3 3 0 0 1 .765.44l1.116-.45a.23.23 0 0 1 .28.1l.9 1.557a.234.234 0 0 1-.055.288l-.954.747a2.4 2.4 0 0 1 .036.44a4 4 0 0 1-.036.442l.963.747a.234.234 0 0 1 .054.288M13 9.01v-5.5l5.5 5.5Z"/></svg>