<svg xmlns="http://www.w3.org/2000/svg" xmlns:xlink="http://www.w3.org/1999/xlink" width="80" zoomAndPan="magnify" viewBox="0 0 60 60" height="80" preserveAspectRatio="xMidYMid meet" version="1.0"><defs><clipPath id="4dc2deccdf"><path d="M 35.519531 32.785156 L 60 32.785156 L 60 57.339844 L 35.519531 57.339844 Z M 35.519531 32.785156 " clip-rule="nonzero"/></clipPath><clipPath id="9fb97095d5"><path d="M 0 2.625 L 60 2.625 L 60 33 L 0 33 Z M 0 2.625 " clip-rule="nonzero"/></clipPath></defs><path fill="#252525" d="M 50.398438 42.65625 L 51.039062 42.015625 L 41.5 38.839844 L 44.679688 48.371094 L 45.320312 47.730469 C 45.96875 47.085938 47.015625 47.082031 47.664062 47.730469 L 51.570312 51.632812 L 54.300781 48.902344 L 50.398438 45 C 49.753906 44.355469 49.753906 43.304688 50.398438 42.65625 " fill-opacity="1" fill-rule="nonzero"/><g clip-path="url(#4dc2deccdf)"><path fill="#252525" d="M 57.816406 50.078125 L 52.746094 55.152344 C 51.84375 56.054688 50.742188 55.496094 50.402344 55.152344 L 46.492188 51.25 L 45.125 52.613281 C 44.71875 53.019531 44.132812 53.1875 43.570312 53.054688 C 43.011719 52.921875 42.5625 52.511719 42.378906 51.964844 L 37.308594 36.742188 C 37.109375 36.144531 37.265625 35.488281 37.707031 35.042969 C 38.152344 34.601562 38.808594 34.445312 39.40625 34.644531 L 54.628906 39.71875 C 55.78125 40.082031 56.144531 41.621094 55.277344 42.460938 L 53.917969 43.828125 L 57.816406 47.730469 C 58.464844 48.378906 58.464844 49.429688 57.816406 50.078125 Z M 56.316406 43.828125 L 56.460938 43.683594 C 57.300781 42.867188 57.640625 41.683594 57.363281 40.519531 C 57.089844 39.355469 56.253906 38.449219 55.164062 38.105469 L 39.941406 33.03125 C 39.597656 32.917969 39.242188 32.859375 38.882812 32.859375 C 37.984375 32.859375 37.140625 33.210938 36.507812 33.84375 C 35.601562 34.746094 35.292969 36.0625 35.699219 37.277344 L 40.769531 52.5 C 41.136719 53.613281 42.039062 54.4375 43.183594 54.707031 C 43.433594 54.769531 43.691406 54.796875 43.953125 54.796875 C 44.847656 54.796875 45.691406 54.449219 46.324219 53.816406 L 46.492188 53.648438 L 49.199219 56.351562 C 49.675781 56.828125 50.5625 57.339844 51.625 57.339844 C 52.5 57.339844 53.300781 56.996094 53.945312 56.351562 L 59.019531 51.277344 C 60.328125 49.964844 60.324219 47.835938 59.019531 46.53125 L 56.316406 43.828125 " fill-opacity="1" fill-rule="nonzero"/></g><g clip-path="url(#9fb97095d5)"><path fill="#252525" d="M 58.300781 29.113281 C 58.300781 30.027344 57.558594 30.769531 56.644531 30.769531 L 3.355469 30.769531 C 2.441406 30.769531 1.699219 30.027344 1.699219 29.113281 L 1.699219 6.019531 C 1.699219 5.105469 2.441406 4.363281 3.355469 4.363281 L 56.644531 4.363281 C 57.558594 4.363281 58.300781 5.105469 58.300781 6.019531 Z M 56.644531 2.664062 L 3.355469 2.664062 C 1.503906 2.664062 0 4.171875 0 6.019531 L 0 29.113281 C 0 30.964844 1.503906 32.46875 3.355469 32.46875 L 56.644531 32.46875 C 58.496094 32.46875 60 30.964844 60 29.113281 L 60 6.019531 C 60 4.171875 58.496094 2.664062 56.644531 2.664062 " fill-opacity="1" fill-rule="nonzero"/></g><path fill="#252525" d="M 7.914062 12.238281 C 7.914062 11.320312 8.65625 10.582031 9.574219 10.582031 L 11.351562 10.582031 C 20.632812 10.941406 20.582031 24.210938 11.351562 24.554688 L 9.574219 24.554688 C 8.65625 24.554688 7.914062 23.8125 7.914062 22.894531 Z M 20.347656 12.238281 C 20.347656 11.320312 21.089844 10.582031 22.007812 10.582031 L 25.558594 10.582031 C 27.753906 10.660156 27.757812 13.816406 25.558594 13.898438 L 23.664062 13.898438 L 23.664062 15.90625 L 24.378906 15.90625 C 26.574219 15.988281 26.578125 19.140625 24.378906 19.222656 L 23.664062 19.222656 L 23.664062 21.238281 L 25.558594 21.238281 C 27.753906 21.320312 27.757812 24.472656 25.558594 24.554688 L 22.007812 24.554688 C 21.089844 24.554688 20.347656 23.8125 20.347656 22.894531 Z M 29.230469 12.238281 C 29.230469 11.46875 29.757812 10.800781 30.507812 10.625 C 31.253906 10.449219 32.027344 10.808594 32.371094 11.496094 L 34.441406 15.636719 L 36.511719 11.496094 C 36.855469 10.808594 37.625 10.445312 38.375 10.625 C 39.121094 10.800781 39.652344 11.46875 39.652344 12.238281 L 39.652344 22.894531 C 39.570312 25.09375 36.417969 25.09375 36.335938 22.894531 L 36.335938 19.261719 L 35.925781 20.085938 C 35.332031 21.296875 33.546875 21.296875 32.957031 20.085938 L 32.546875 19.261719 L 32.546875 22.894531 C 32.546875 23.8125 31.804688 24.554688 30.886719 24.554688 C 29.972656 24.554688 29.230469 23.8125 29.230469 22.894531 Z M 41.664062 15.789062 C 41.902344 8.929688 51.8125 8.847656 52.085938 15.789062 L 52.085938 19.34375 C 52.085938 22.28125 49.691406 24.554688 46.875 24.554688 C 44 24.554688 41.664062 22.21875 41.664062 19.34375 Z M 5.015625 27.453125 L 54.984375 27.453125 L 54.984375 7.679688 L 5.015625 7.679688 L 5.015625 27.453125 " fill-opacity="1" fill-rule="nonzero"/><path fill="#252525" d="M 48.769531 19.34375 L 48.769531 15.789062 C 48.675781 13.273438 45.070312 13.289062 44.980469 15.789062 L 44.980469 19.34375 C 45.074219 21.847656 48.671875 21.855469 48.769531 19.34375 " fill-opacity="1" fill-rule="nonzero"/><path fill="#252525" d="M 11.351562 13.898438 L 11.230469 13.898438 L 11.230469 21.238281 L 11.351562 21.238281 C 16.207031 21.054688 16.21875 14.085938 11.351562 13.898438 " fill-opacity="1" fill-rule="nonzero"/></svg>