<svg xmlns="http://www.w3.org/2000/svg" xmlns:xlink="http://www.w3.org/1999/xlink" width="80" zoomAndPan="magnify" viewBox="0 0 60 60" height="80" preserveAspectRatio="xMidYMid meet" version="1.0"><defs><clipPath id="6a048730e5"><path d="M 3.976562 0 L 55.726562 0 L 55.726562 60 L 3.976562 60 Z M 3.976562 0 " clip-rule="nonzero"/></clipPath></defs><path fill="#252525" d="M 36.882812 32.433594 C 37.292969 32.429688 37.71875 32.425781 37.972656 32.421875 C 39.304688 32.398438 39.90625 31.050781 39.90625 29.722656 C 39.90625 29.085938 39.761719 27.003906 37.929688 27.003906 L 36.875 27.003906 C 36.875 27.933594 36.878906 29.191406 36.878906 29.710938 C 36.878906 30.332031 36.882812 31.539062 36.882812 32.433594 " fill-opacity="1" fill-rule="nonzero"/><path fill="#252525" d="M 8.988281 53.328125 C 8.988281 54.242188 9.730469 54.984375 10.640625 54.984375 L 47.691406 54.984375 L 47.691406 51.667969 L 10.640625 51.667969 C 9.730469 51.667969 8.988281 52.414062 8.988281 53.328125 " fill-opacity="1" fill-rule="nonzero"/><path fill="#252525" d="M 42.4375 14.820312 C 43.023438 14.820312 43.515625 14.378906 43.515625 13.859375 C 43.515625 13.335938 43.023438 12.898438 42.4375 12.898438 L 41.4375 12.898438 C 41.441406 14.179688 41.4375 13.753906 41.441406 14.824219 C 41.816406 14.824219 42.203125 14.820312 42.4375 14.820312 " fill-opacity="1" fill-rule="nonzero"/><g clip-path="url(#6a048730e5)"><path fill="#252525" d="M 54.316406 50.011719 C 54.316406 50.925781 53.574219 51.667969 52.65625 51.667969 L 51.007812 51.667969 L 51.007812 54.984375 L 52.65625 54.984375 C 53.574219 54.984375 54.316406 55.726562 54.316406 56.644531 C 54.316406 57.558594 53.574219 58.300781 52.65625 58.300781 L 10.640625 58.300781 C 7.902344 58.300781 5.671875 56.070312 5.671875 53.328125 L 5.671875 6.992188 C 5.671875 4.070312 8.042969 1.699219 10.957031 1.699219 L 52.65625 1.699219 C 53.574219 1.699219 54.316406 2.441406 54.316406 3.355469 Z M 56.015625 50.011719 L 56.015625 3.355469 C 56.015625 1.507812 54.507812 0 52.65625 0 L 10.957031 0 C 7.109375 0 3.976562 3.136719 3.976562 6.992188 L 3.976562 53.328125 C 3.976562 57.003906 6.964844 60 10.640625 60 L 52.65625 60 C 54.507812 60 56.015625 58.492188 56.015625 56.644531 C 56.015625 54.96875 54.78125 53.578125 53.175781 53.328125 C 54.78125 53.078125 56.015625 51.683594 56.015625 50.011719 " fill-opacity="1" fill-rule="nonzero"/></g><path fill="#252525" d="M 15.753906 24.675781 C 16.761719 24.675781 17.738281 24.972656 18.574219 25.539062 C 19.078125 25.878906 19.210938 26.566406 18.867188 27.074219 C 18.523438 27.578125 17.839844 27.710938 17.332031 27.371094 C 16.867188 27.054688 16.320312 26.886719 15.753906 26.886719 C 14.195312 26.886719 12.925781 28.160156 12.925781 29.722656 C 12.925781 31.285156 14.195312 32.554688 15.753906 32.554688 C 16.984375 32.554688 17.636719 31.777344 17.898438 30.828125 L 16.796875 30.828125 C 16.1875 30.828125 15.691406 30.332031 15.691406 29.722656 C 15.691406 29.109375 16.1875 28.617188 16.796875 28.617188 L 19.148438 28.617188 C 19.757812 28.617188 20.253906 29.109375 20.253906 29.722656 C 20.253906 32.691406 18.402344 34.765625 15.753906 34.765625 C 12.976562 34.765625 10.714844 32.503906 10.714844 29.722656 C 10.714844 26.9375 12.976562 24.675781 15.753906 24.675781 Z M 14.261719 11.789062 C 14.261719 11.179688 14.757812 10.683594 15.367188 10.683594 C 15.980469 10.683594 16.472656 11.179688 16.472656 11.789062 L 16.472656 17.265625 C 16.472656 17.675781 16.597656 18.007812 17.210938 18.398438 C 17.761719 18.75 18.453125 18.683594 18.894531 18.460938 C 19.675781 18.066406 19.78125 17.632812 19.78125 17.261719 L 19.78125 11.789062 C 19.78125 11.179688 20.277344 10.683594 20.886719 10.683594 C 21.5 10.683594 21.992188 11.179688 21.992188 11.789062 L 21.992188 17.261719 C 21.992188 18.222656 21.628906 19.558594 19.890625 20.433594 C 18.667969 21.050781 17.148438 20.980469 16.019531 20.261719 C 14.855469 19.515625 14.261719 18.507812 14.261719 17.265625 Z M 22.867188 24.675781 C 23.476562 24.675781 23.972656 25.171875 23.972656 25.78125 L 23.972656 31.203125 C 23.972656 31.601562 24.09375 31.929688 24.695312 32.3125 C 25.238281 32.660156 25.917969 32.59375 26.351562 32.375 C 27.121094 31.988281 27.226562 31.5625 27.226562 31.195312 L 27.226562 25.78125 C 27.226562 25.171875 27.71875 24.675781 28.332031 24.675781 C 28.941406 24.675781 29.4375 25.171875 29.4375 25.78125 L 29.4375 31.195312 C 29.4375 32.15625 29.074219 33.480469 27.347656 34.347656 C 26.132812 34.960938 24.625 34.894531 23.503906 34.175781 C 22.347656 33.4375 21.761719 32.4375 21.761719 31.203125 L 21.761719 25.78125 C 21.761719 25.171875 22.257812 24.675781 22.867188 24.675781 Z M 23.601562 17.75 C 24.054688 17.339844 24.75 17.375 25.160156 17.828125 C 25.625 18.339844 26.351562 18.644531 27.109375 18.644531 C 27.816406 18.644531 28.316406 18.230469 28.386719 17.832031 C 28.480469 17.304688 27.667969 16.960938 27.417969 16.871094 C 26.179688 16.414062 25.082031 15.925781 25.039062 15.902344 C 24.382812 15.609375 23.511719 14.578125 23.707031 13.207031 C 23.867188 12.101562 24.671875 11.199219 25.8125 10.855469 C 28.042969 10.183594 29.871094 11.699219 29.949219 11.761719 C 30.417969 12.15625 30.476562 12.855469 30.082031 13.320312 C 29.691406 13.785156 29 13.847656 28.53125 13.460938 C 28.5 13.433594 27.507812 12.652344 26.449219 12.972656 C 25.847656 13.15625 25.769531 13.695312 26.042969 13.929688 C 26.335938 14.058594 27.226562 14.441406 28.183594 14.796875 C 30.253906 15.5625 30.769531 17.066406 30.5625 18.21875 C 30.289062 19.746094 28.835938 20.855469 27.109375 20.855469 C 25.714844 20.855469 24.410156 20.292969 23.523438 19.3125 C 23.113281 18.859375 23.148438 18.160156 23.601562 17.75 Z M 30.941406 25.78125 C 30.941406 25.171875 31.4375 24.675781 32.046875 24.675781 C 32.660156 24.675781 33.152344 25.171875 33.152344 25.78125 L 33.152344 33.660156 C 33.152344 34.273438 32.660156 34.765625 32.046875 34.765625 C 31.4375 34.765625 30.941406 34.273438 30.941406 33.660156 Z M 32.148438 11.828125 C 32.148438 11.214844 32.644531 10.722656 33.253906 10.722656 L 36.570312 10.722656 C 37.179688 10.722656 37.675781 11.214844 37.675781 11.828125 C 37.675781 12.4375 37.179688 12.933594 36.570312 12.933594 L 34.359375 12.933594 L 34.359375 14.664062 L 36.328125 14.664062 C 36.9375 14.664062 37.433594 15.160156 37.433594 15.769531 C 37.433594 16.378906 36.9375 16.875 36.328125 16.875 L 34.359375 16.875 L 34.359375 18.609375 L 36.570312 18.609375 C 37.179688 18.609375 37.675781 19.101562 37.675781 19.714844 C 37.675781 20.324219 37.179688 20.820312 36.570312 20.820312 L 33.253906 20.820312 C 32.644531 20.820312 32.148438 20.324219 32.148438 19.714844 Z M 42.117188 29.722656 C 42.117188 32.527344 40.386719 34.589844 38.011719 34.632812 C 37.394531 34.644531 35.851562 34.648438 35.785156 34.648438 L 35.78125 34.648438 C 35.1875 34.648438 34.660156 34.191406 34.660156 33.421875 L 34.660156 25.898438 C 34.660156 25.289062 35.15625 24.792969 35.765625 24.792969 L 37.929688 24.792969 C 40.433594 24.792969 42.117188 26.773438 42.117188 29.722656 Z M 39.21875 11.789062 C 39.21875 11.179688 39.714844 10.683594 40.324219 10.683594 L 42.4375 10.683594 C 44.25 10.683594 45.726562 12.109375 45.726562 13.859375 C 45.726562 15.234375 44.8125 16.410156 43.542969 16.847656 L 45.449219 19.019531 C 45.851562 19.476562 45.808594 20.175781 45.351562 20.578125 C 44.890625 20.980469 44.191406 20.9375 43.789062 20.480469 L 41.429688 17.792969 L 41.429688 19.75 C 41.429688 20.359375 40.9375 20.855469 40.324219 20.855469 C 39.714844 20.855469 39.21875 20.359375 39.21875 19.75 Z M 49.273438 25.816406 C 49.273438 26.429688 48.777344 26.921875 48.167969 26.921875 L 45.988281 26.921875 L 45.988281 28.617188 L 47.925781 28.617188 C 48.535156 28.617188 49.03125 29.109375 49.03125 29.722656 C 49.03125 30.332031 48.535156 30.828125 47.925781 30.828125 L 45.988281 30.828125 L 45.988281 32.519531 L 48.167969 32.519531 C 48.777344 32.519531 49.273438 33.015625 49.273438 33.625 C 49.273438 34.234375 48.777344 34.730469 48.167969 34.730469 L 44.882812 34.730469 C 44.273438 34.730469 43.777344 34.234375 43.777344 33.625 L 43.777344 25.816406 C 43.777344 25.207031 44.273438 24.710938 44.882812 24.710938 L 48.167969 24.710938 C 48.777344 24.710938 49.273438 25.207031 49.273438 25.816406 Z M 42.953125 43.714844 L 17.039062 43.714844 C 16.121094 43.714844 15.378906 42.972656 15.378906 42.058594 C 15.378906 41.140625 16.121094 40.398438 17.039062 40.398438 L 42.953125 40.398438 C 43.867188 40.398438 44.609375 41.140625 44.609375 42.058594 C 44.609375 42.972656 43.867188 43.714844 42.953125 43.714844 Z M 8.988281 6.992188 L 8.988281 48.636719 C 9.511719 48.449219 10.082031 48.351562 10.640625 48.351562 L 51 48.351562 L 51 5.015625 L 10.957031 5.015625 C 9.875 5.015625 8.988281 5.902344 8.988281 6.992188 " fill-opacity="1" fill-rule="nonzero"/></svg>